<?xml version="1.0" encoding="utf-8"?>
<!-- Generator: Adobe Illustrator 16.0.0, SVG Export Plug-In . SVG Version: 6.00 Build 0)  -->
<!DOCTYPE svg PUBLIC "-//W3C//DTD SVG 1.1//EN" "http://www.w3.org/Graphics/SVG/1.1/DTD/svg11.dtd">
<svg version="1.1" id="Layer_1" xmlns="http://www.w3.org/2000/svg" xmlns:xlink="http://www.w3.org/1999/xlink" x="0px" y="0px"
	 width="414px" height="173px" viewBox="0 0 414 173" enable-background="new 0 0 414 173" xml:space="preserve">
<g>
	<defs>
		<rect id="SVGID_1_" width="414" height="173"/>
	</defs>
	<clipPath id="SVGID_2_">
		<use xlink:href="#SVGID_1_"  overflow="visible"/>
	</clipPath>
	<path clip-path="url(#SVGID_2_)" fill="#003C7B" d="M172.726,56.542l1.089-0.568l1.421-4.357l-0.711-0.568h-30.4l2.225-6.819
		h36.273c0.568,0,1.096,0.135,1.586,0.403c0.489,0.268,0.915,0.608,1.279,1.018c0.362,0.411,0.615,0.86,0.757,1.35
		c0.142,0.489,0.15,0.955,0.024,1.396l-3.031,9.376c-0.347,1.011-0.813,1.879-1.396,2.605c-0.585,0.726-1.256,1.31-2.013,1.752
		c-0.758,0.442-1.555,0.766-2.391,0.97c-0.837,0.206-1.666,0.308-2.486,0.308h-24.813l-3.362,10.371h-10.039l5.587-17.237H172.726z"
		/>
	<path clip-path="url(#SVGID_2_)" fill="#003C7B" d="M218.137,56.542c0.348-0.095,0.585-0.189,0.711-0.284
		c0.126-0.095,0.252-0.189,0.379-0.284l1.421-4.357c-0.096-0.315-0.332-0.504-0.711-0.568h-29.027l2.226-6.819h34.993
		c0.505,0,1.011,0.135,1.517,0.403c0.504,0.268,0.93,0.608,1.277,1.018c0.348,0.411,0.6,0.86,0.759,1.35
		c0.157,0.489,0.173,0.955,0.047,1.396l-3.03,9.376c-0.348,1.011-0.908,1.879-1.681,2.605c-0.774,0.726-1.682,1.318-2.724,1.775
		c-1.042,0.458-2.154,0.79-3.339,0.995c-1.183,0.206-2.344,0.308-3.479,0.308l10.228,10.323h-13.969l-10.512-10.323h-6.298
		l-3.362,10.323h-10.039l5.588-17.237H218.137z"/>
	<path clip-path="url(#SVGID_2_)" fill="#003C7B" d="M236.842,49.533c0.314-0.947,0.805-1.752,1.468-2.415
		c0.663-0.663,1.42-1.208,2.273-1.634c0.852-0.426,1.774-0.741,2.77-0.947c0.994-0.205,1.98-0.308,2.959-0.308h25.902
		c0.884,0,1.753,0.111,2.604,0.332c0.853,0.221,1.57,0.561,2.154,1.018c0.584,0.458,1.002,1.018,1.255,1.681
		s0.237,1.421-0.047,2.273l-6.156,18.941c-0.284,0.852-0.766,1.61-1.443,2.273c-0.681,0.663-1.461,1.224-2.345,1.681
		c-0.884,0.458-1.822,0.798-2.817,1.018c-0.994,0.222-1.935,0.332-2.817,0.332h-25.903c-0.978,0-1.894-0.102-2.745-0.308
		c-0.853-0.205-1.571-0.521-2.154-0.947c-0.585-0.427-0.988-0.971-1.208-1.634c-0.221-0.663-0.189-1.468,0.095-2.415L236.842,49.533
		z M262.507,66.959l5.161-15.911h-21.309l-5.162,15.911H262.507z"/>
	<path clip-path="url(#SVGID_2_)" fill="#B22724" d="M157.281,88.446l0.912-0.476l1.189-3.646l-0.594-0.476h-25.447l1.862-5.707
		h30.362c0.476,0,0.918,0.112,1.328,0.336c0.41,0.225,0.766,0.509,1.07,0.853c0.304,0.343,0.516,0.72,0.635,1.129
		c0.119,0.41,0.125,0.8,0.019,1.169l-2.536,7.849c-0.291,0.846-0.681,1.572-1.17,2.18c-0.489,0.608-1.05,1.096-1.684,1.466
		c-0.634,0.371-1.302,0.642-2.002,0.813c-0.7,0.172-1.394,0.257-2.081,0.257h-20.77l-2.814,8.681h-8.403l4.677-14.428H157.281z"/>
	<polygon clip-path="url(#SVGID_2_)" fill="#B22724" points="175.991,102.874 167.587,102.874 175.634,78.141 184.037,78.141
		180.906,87.733 198.782,87.733 201.914,78.141 210.355,78.141 202.31,102.874 193.867,102.874 196.918,93.441 179.042,93.441 	"/>
	<polygon clip-path="url(#SVGID_2_)" fill="#B22724" points="214.913,78.141 225.655,78.141 232.314,86.068 244.008,78.141
		254.748,78.141 234.454,92.093 230.967,102.874 222.563,102.874 226.052,92.093 	"/>
	<path clip-path="url(#SVGID_2_)" fill="#B22724" d="M259.029,93.361c-0.688,0-1.321-0.079-1.903-0.238
		c-0.581-0.158-1.062-0.422-1.446-0.792s-0.635-0.846-0.753-1.427s-0.033-1.308,0.259-2.181l2.298-7.056
		c0.105-0.37,0.362-0.759,0.772-1.169c0.41-0.409,0.885-0.793,1.428-1.149c0.541-0.357,1.09-0.648,1.645-0.872
		c0.555-0.225,1.057-0.337,1.506-0.337h30.362l-1.863,5.707h-25.447l-0.872,0.317l-0.99,3.052l0.555,0.437h20.136
		c0.688,0,1.328,0.08,1.922,0.238c0.596,0.158,1.084,0.423,1.468,0.793c0.382,0.371,0.627,0.846,0.732,1.427
		c0.105,0.582,0.026,1.308-0.238,2.18l-2.299,7.095c-0.132,0.37-0.396,0.761-0.792,1.17s-0.852,0.786-1.368,1.13
		c-0.515,0.344-1.057,0.628-1.625,0.852c-0.568,0.225-1.09,0.337-1.565,0.337h-30.362l1.864-5.708h25.367l0.952-0.475l0.91-2.895
		l-0.476-0.436H259.029z"/>
	<polygon clip-path="url(#SVGID_2_)" fill="#B22724" points="306.197,78.141 298.15,102.874 289.748,102.874 297.794,78.141 	"/>
	<path clip-path="url(#SVGID_2_)" fill="#B22724" d="M309.328,82.58c0.264-0.792,0.673-1.466,1.229-2.021
		c0.555-0.555,1.189-1.011,1.902-1.367c0.714-0.357,1.487-0.621,2.319-0.793c0.832-0.172,1.657-0.258,2.477-0.258h21.681
		c0.74,0,1.468,0.093,2.182,0.278c0.713,0.185,1.313,0.469,1.803,0.852c0.489,0.383,0.839,0.852,1.05,1.407
		c0.212,0.555,0.198,1.189-0.039,1.902l-5.152,15.855c-0.238,0.714-0.642,1.348-1.209,1.903c-0.568,0.555-1.223,1.023-1.963,1.407
		c-0.739,0.383-1.525,0.667-2.357,0.852c-0.833,0.185-1.619,0.278-2.359,0.278h-21.681c-0.82,0-1.586-0.086-2.299-0.258
		c-0.714-0.172-1.315-0.437-1.805-0.794c-0.488-0.356-0.825-0.812-1.01-1.366c-0.185-0.556-0.159-1.229,0.079-2.022L309.328,82.58z
		 M330.811,97.167l4.32-13.318h-17.836l-4.321,13.318H330.811z"/>
	<path clip-path="url(#SVGID_2_)" fill="#003C7B" d="M86.472,104.785c-4.908-0.428-9.331,1.047-13.831,0.474
		c-1.048-0.133-1.463,0.815-1.76,1.503c-2.138,4.959-5.656,9.089-8.238,13.792c-2.677,4.877-9.521,6.93-13.953,9.856
		c-3.573,2.361-6.997,4.949-10.242,7.745c-5.34,4.6-11.364,10.728-12.554,18.161c-0.402,2.514-0.206,10.26-3.824,4.939
		c-1.327-1.95-2.184-6.03-1.912-8.387c0.419-3.616-0.251-7.165-0.722-10.715c-0.28-2.113,0.929-3.22,2.554-3.177
		c10.296,0.274,14.041-13.754,21.724-18.34c1.521-0.907,3.201-1.537,4.68-2.513c5.181-3.411,4.145-13.021,5.982-18.347
		c1.664-4.825-1.111-9.592,1.259-14.463c2.854-5.866,2.618-12.011,1.836-18.246c-0.577-4.593-1.031-9.204-1.458-13.814
		c-0.163-1.749-0.816-2.57-2.713-2.442c-2.617,0.178-5.251,0.127-7.877,0.162c-4.4,0.059-7.902,8.591-9.643,11.987
		c-1.28,2.497-2.244,5.366-2.118,8.208c0.154,3.459,1.481,5.14-1.653,7.734c-1.753,1.45-3.1,1.724-4.773,0.263
		c-1.836-1.603-2.357-4.073-1.655-6.283c0.542-1.707,1.819-2.902,2.61-4.433c1.958-3.793,2.076-8.13,3.739-12
		c1.303-3.036,2.498-6.118,3.788-9.16c0.633-1.492,1.938-2.307,3.363-2.884c6.17-2.494,12.475-4.948,18.943-6.444
		c2.097-0.484,4.306-0.085,6.429-0.437c3.054-0.506,4.978-2.993,4.019-6.006c-0.439-1.376-0.892-2.737-1.128-4.179
		c-1.007-6.167,3.183-10.663,9.247-9.393c2.523,0.529,5.106,1.213,6.715,3.366c2.154,2.883,0.351,5.719,1.539,8.437
		c0.284,0.648,0.923,1.119,1.093,1.805c0.106,0.425,0.015,0.872-0.083,1.298c-0.67,2.931-0.864,6.471-4.126,6.825
		c-1.025,0.111-2.286-0.467-3.001,1.174c4.881,0.366,5.076,4.216,5.466,7.668c0.37,3.277,0.537,6.622-0.497,9.87
		c-0.118,0.37-0.245,0.808,0.097,1.173c2.666-1.501,3.296-2.874,2.782-5.724c-0.473-2.614,0.909-5.174,0.302-7.81
		c-0.066-0.288,0.141-0.52,0.45-0.584c0.467-0.097,0.948,0.096,1.029,0.493c0.392,1.931,1.331,2.654,3.466,2.788
		c1.876,0.118,2.986,4.001,2.106,6.202c-0.28,0.702-0.532,1.51-1.047,2.009c-3.205,3.106-4.795,7.558-8.005,10.46
		c-5.307,4.798-6.078,11.333-8.049,17.469c-0.167,0.52-0.211,1.084-0.407,1.591c-0.224,0.579-0.238,0.963-0.07,1.238
		c0.2,0.328,0.658,0.502,1.325,0.668c7.795,1.941,15.145,5.019,22.062,9.093c2.598,1.53,3.451,4.546,2.193,7.342
		c-1.144,2.541-2.87,4.653-4.88,6.589c-5.055,4.869-10.11,9.742-15.018,14.76c-2.686,2.747-2.805,6.562-1.466,9.983
		c0.982,2.509,6.016,6.329,5.246,8.77c-0.346,1.098-1.323,1.185-2.177,1.179c-3.414-0.028-6.444-1.217-8.541-3.917
		c-1.835-2.362-3.845-4.496-6.133-6.389c-0.936-0.774-1.482-1.838-1.974-2.868c-0.451-0.943-0.422-2.059,0.62-2.787
		c0.819-0.572,1.47-1.248,1.68-2.265c0.075-0.365,0.3-0.687,0.655-0.73c3.854-0.472,5.188-3.733,7.024-6.389
		c2.16-3.128,3.9-6.509,5.354-10.012C83.232,108.53,84.584,106.698,86.472,104.785"/>
	<path clip-path="url(#SVGID_2_)" fill="#D8D8D8" d="M93.847,78.977c0,14.211-11.521,25.732-25.732,25.732
		c-14.212,0-25.732-11.521-25.732-25.732c0-14.211,11.52-25.732,25.732-25.732C82.326,53.245,93.847,64.766,93.847,78.977"/>
	<path clip-path="url(#SVGID_2_)" fill="#003C7B" d="M56.377,72.916c-0.568,5.887-4.186,9.606-4.614,15.503
		c-0.076,1.057-0.005,6.001,1.925,14.141c0.065,0.273,4.83-28.508,5.093-28.404c0.992-4.771,1.019-9.711-0.128-14.585
		c-0.345-1.464-0.705-2.927-1.143-4.367c-0.156-0.514-0.492-2.328-1.076-2.579c-0.193-0.083-0.544-0.07-0.48,0.305
		c0.75,4.377,1.433,8.994,0.896,13.397C56.573,68.597,56.597,70.64,56.377,72.916"/>
	<path clip-path="url(#SVGID_2_)" fill="#003C7B" d="M69.594,67.628c0.537,0.801,1.623,1.016,2.424,0.478
		c0.802-0.537,1.016-1.622,0.478-2.424c-0.537-0.801-1.622-1.015-2.424-0.478C69.271,65.741,69.057,66.827,69.594,67.628"/>
	<path clip-path="url(#SVGID_2_)" fill="#003C7B" d="M69.548,62.854c0.384,0.572,1.159,0.725,1.731,0.342
		c0.573-0.384,0.726-1.159,0.342-1.732c-0.384-0.572-1.159-0.725-1.731-0.341C69.317,61.505,69.164,62.28,69.548,62.854"/>
	<path clip-path="url(#SVGID_2_)" fill="#003C7B" d="M68.889,59.091c0.253,0.378,0.765,0.479,1.142,0.225
		c0.378-0.253,0.479-0.764,0.226-1.142c-0.253-0.378-0.765-0.479-1.143-0.225C68.737,58.202,68.636,58.713,68.889,59.091"/>
	<path clip-path="url(#SVGID_2_)" fill="#003C7B" d="M69.392,73.322c0.643,0.959,1.941,1.215,2.9,0.572
		c0.959-0.642,1.215-1.941,0.573-2.9c-0.643-0.959-1.942-1.215-2.901-0.572S68.749,72.363,69.392,73.322"/>
	<path clip-path="url(#SVGID_2_)" fill="#003C7B" d="M67.999,80.266c0.806,1.202,2.434,1.524,3.636,0.718
		c1.202-0.806,1.524-2.434,0.718-3.636c-0.806-1.203-2.434-1.524-3.636-0.718C67.514,77.436,67.193,79.063,67.999,80.266"/>
	<path clip-path="url(#SVGID_2_)" fill="#003C7B" d="M68.558,90.682c-0.387-0.885-1.417-1.287-2.301-0.9
		c-0.884,0.388-1.287,1.418-0.9,2.302c0.387,0.885,1.418,1.286,2.301,0.899C68.542,92.596,68.944,91.565,68.558,90.682"/>
	<path clip-path="url(#SVGID_2_)" fill="#003C7B" d="M67.011,95.672c-0.276-0.631-1.012-0.919-1.644-0.644
		c-0.631,0.277-0.919,1.014-0.642,1.645c0.276,0.632,1.012,0.919,1.643,0.643C67,97.039,67.287,96.303,67.011,95.672"/>
	<path clip-path="url(#SVGID_2_)" fill="#003C7B" d="M65.071,99.365c-0.182-0.417-0.668-0.606-1.085-0.424
		c-0.416,0.182-0.606,0.668-0.423,1.085c0.182,0.416,0.668,0.605,1.084,0.424C65.064,100.268,65.253,99.782,65.071,99.365"/>
	<path clip-path="url(#SVGID_2_)" fill="#003C7B" d="M70.556,84.729c-0.463-1.057-1.696-1.539-2.753-1.076
		c-1.058,0.463-1.54,1.696-1.076,2.753c0.463,1.058,1.695,1.539,2.753,1.076C70.537,87.02,71.019,85.786,70.556,84.729"/>
	<path clip-path="url(#SVGID_2_)" fill="#003C7B" d="M88.439,91.451c-0.289-0.173-0.601-0.359-0.943-0.525
		c-0.339-0.173-0.693-0.367-1.074-0.522c-0.381-0.159-0.763-0.354-1.171-0.495c-0.405-0.147-0.817-0.299-1.229-0.449
		c-0.42-0.125-0.841-0.25-1.254-0.373c-0.41-0.136-0.836-0.202-1.236-0.304c-0.399-0.102-0.798-0.159-1.175-0.222
		c-0.374-0.07-0.737-0.109-1.073-0.141c-0.001,0-0.002,0-0.003,0c0.073,0.058,0.151,0.108,0.217,0.175
		c0.013,0.013,0.025,0.027,0.038,0.041c0.536,0.069,0.978,0.268,1.324,0.562c1.049,0.244,2.066,0.634,3.046,1.093
		c0.545,0.029,1.001,0.188,1.367,0.441c0.086,0.012,0.171,0.021,0.261,0.044c1.123,0.278,1.973,1,2.977,1.518
		c0.128,0.064,0.26,0.12,0.389,0.183c0.836,0.267,1.36,0.435,1.36,0.435l0.044-0.132C90.304,92.778,89.599,92.13,88.439,91.451"/>
	<path clip-path="url(#SVGID_2_)" fill="#003C7B" d="M83.132,60.764c0,0-7.967,23.787-6.712,25.694
		c1.255,1.906,1.419,1.34,5.061,2.902c0,0-4.514-2.67-4.08-4.166C77.834,83.697,83.132,60.764,83.132,60.764"/>
	<path clip-path="url(#SVGID_2_)" fill="#D8D8D8" d="M57.891,118.468c0,1.247-1.011,2.26-2.259,2.26
		c-1.247,0-2.259-1.013-2.259-2.26c0-1.248,1.012-2.259,2.259-2.259C56.88,116.209,57.891,117.22,57.891,118.468"/>
	<path clip-path="url(#SVGID_2_)" fill="#D8D8D8" d="M29.913,142.054c0,0.736-0.597,1.334-1.334,1.334s-1.334-0.598-1.334-1.334
		c0-0.737,0.597-1.334,1.334-1.334S29.913,141.316,29.913,142.054"/>
	<path clip-path="url(#SVGID_2_)" fill="#D8D8D8" d="M77.777,128.873c0,0.737-0.597,1.334-1.334,1.334s-1.334-0.597-1.334-1.334
		c0-0.736,0.597-1.334,1.334-1.334S77.777,128.137,77.777,128.873"/>
	<path clip-path="url(#SVGID_2_)" fill="#D8D8D8" d="M97.431,102.514c0,1.247-1.011,2.259-2.259,2.259
		c-1.247,0-2.259-1.012-2.259-2.259s1.012-2.259,2.259-2.259C96.42,100.255,97.431,101.267,97.431,102.514"/>

		<line clip-path="url(#SVGID_2_)" fill="none" stroke="#D8D8D8" stroke-width="0.5" stroke-miterlimit="10" x1="29.045" y1="141.476" x2="55.632" y2="119.161"/>

		<line clip-path="url(#SVGID_2_)" fill="none" stroke="#D8D8D8" stroke-width="0.5" stroke-miterlimit="10" x1="76.768" y1="128.65" x2="95.501" y2="102.874"/>

		<line clip-path="url(#SVGID_2_)" fill="none" stroke="#D8D8D8" stroke-width="0.5" stroke-miterlimit="10" x1="56.677" y1="117.254" x2="62.458" y2="102.874"/>

		<line clip-path="url(#SVGID_2_)" fill="none" stroke="#D8D8D8" stroke-width="0.5" stroke-miterlimit="10" x1="93.847" y1="101.357" x2="81.708" y2="97.89"/>

		<line clip-path="url(#SVGID_2_)" fill="none" stroke="#D8D8D8" stroke-width="2" stroke-miterlimit="10" x1="138.853" y1="14.83" x2="97.431" y2="151.712"/>
	<g clip-path="url(#SVGID_2_)">
		<text transform="matrix(0.9708 0 -0.2514 1.018 120.1572 118.8145)"><tspan x="0" y="0" font-family="'SwanseaBoldItalic'" font-size="10.8706">T</tspan><tspan x="6.642" y="0" font-family="'SwanseaBoldItalic'" font-size="10.8706">H</tspan><tspan x="14.088" y="0" font-family="'SwanseaBoldItalic'" font-size="10.8706">E RES</tspan><tspan x="46.743" y="0" font-family="'SwanseaBoldItalic'" font-size="10.8706">U</tspan><tspan x="54.2" y="0" font-family="'SwanseaBoldItalic'" font-size="10.8706" letter-spacing="-1.03">L</tspan><tspan x="59.266" y="0" font-family="'SwanseaBoldItalic'" font-size="10.8706">TS YOU </tspan><tspan x="102.758" y="0" font-family="'SwanseaBoldItalic'" font-size="10.8706">W</tspan><tspan x="112.042" y="0" font-family="'SwanseaBoldItalic'" font-size="10.8706">AN</tspan><tspan x="127.761" y="0" font-family="'SwanseaBoldItalic'" font-size="10.8706" letter-spacing="-1.03">T</tspan><tspan x="132.783" y="0" font-family="'SwanseaBoldItalic'" font-size="10.8706">,</tspan></text>
	</g>
	<g clip-path="url(#SVGID_2_)">
		<text transform="matrix(0.9708 0 -0.2514 1.018 259.2148 118.6699)"><tspan x="0" y="0" font-family="'SwanseaBoldItalic'" font-size="10.8706">T</tspan><tspan x="6.642" y="0" font-family="'SwanseaBoldItalic'" font-size="10.8706">H</tspan><tspan x="14.088" y="0" font-family="'SwanseaBoldItalic'" font-size="10.8706">E CARE YOU DESERVE</tspan></text>
	</g>
</g>
</svg>
